<!-- Placeholder SVG for Starry Night Background -->
<svg xmlns="http://www.w3.org/2000/svg" width="1920" height="1080" viewBox="0 0 1920 1080">
  <defs>
    <linearGradient id="night-gradient" x1="0%" y1="0%" x2="0%" y2="100%">
      <stop offset="0%" style="stop-color:#0a0e27;stop-opacity:1" />
      <stop offset="50%" style="stop-color:#1a1a3e;stop-opacity:1" />
      <stop offset="100%" style="stop-color:#000000;stop-opacity:1" />
    </linearGradient>
  </defs>
  <rect width="1920" height="1080" fill="url(#night-gradient)"/>
  <!-- Stars -->
  <circle cx="100" cy="100" r="2" fill="white" opacity="0.8"/>
  <circle cx="300" cy="150" r="1.5" fill="white" opacity="0.6"/>
  <circle cx="500" cy="80" r="2.5" fill="white" opacity="0.9"/>
  <circle cx="700" cy="200" r="1" fill="white" opacity="0.5"/>
  <circle cx="900" cy="120" r="2" fill="white" opacity="0.7"/>
  <circle cx="1100" cy="180" r="1.5" fill="white" opacity="0.8"/>
  <circle cx="1300" cy="90" r="2" fill="white" opacity="0.6"/>
  <circle cx="1500" cy="160" r="1" fill="white" opacity="0.9"/>
  <circle cx="1700" cy="110" r="2.5" fill="white" opacity="0.7"/>
  <circle cx="200" cy="400" r="1.5" fill="white" opacity="0.6"/>
  <circle cx="400" cy="350" r="2" fill="white" opacity="0.8"/>
  <circle cx="600" cy="450" r="1" fill="white" opacity="0.5"/>
  <circle cx="800" cy="380" r="2.5" fill="white" opacity="0.9"/>
  <circle cx="1000" cy="420" r="1.5" fill="white" opacity="0.7"/>
  <circle cx="1200" cy="390" r="2" fill="white" opacity="0.6"/>
  <circle cx="1400" cy="460" r="1" fill="white" opacity="0.8"/>
  <circle cx="1600" cy="410" r="2" fill="white" opacity="0.9"/>
  <circle cx="1800" cy="370" r="1.5" fill="white" opacity="0.5"/>
  <circle cx="150" cy="700" r="2" fill="white" opacity="0.7"/>
  <circle cx="350" cy="650" r="1.5" fill="white" opacity="0.8"/>
  <circle cx="550" cy="720" r="2.5" fill="white" opacity="0.6"/>
  <circle cx="750" cy="680" r="1" fill="white" opacity="0.9"/>
  <circle cx="950" cy="710" r="2" fill="white" opacity="0.5"/>
  <circle cx="1150" cy="670" r="1.5" fill="white" opacity="0.7"/>
  <circle cx="1350" cy="730" r="2" fill="white" opacity="0.8"/>
  <circle cx="1550" cy="690" r="1" fill="white" opacity="0.6"/>
  <circle cx="1750" cy="720" r="2.5" fill="white" opacity="0.9"/>
  <circle cx="250" cy="950" r="1.5" fill="white" opacity="0.6"/>
  <circle cx="450" cy="900" r="2" fill="white" opacity="0.8"/>
  <circle cx="650" cy="980" r="1" fill="white" opacity="0.5"/>
  <circle cx="850" cy="920" r="2.5" fill="white" opacity="0.9"/>
  <circle cx="1050" cy="960" r="1.5" fill="white" opacity="0.7"/>
  <circle cx="1250" cy="930" r="2" fill="white" opacity="0.6"/>
  <circle cx="1450" cy="1000" r="1" fill="white" opacity="0.8"/>
  <circle cx="1650" cy="950" r="2" fill="white" opacity="0.9"/>
  <circle cx="1850" cy="910" r="1.5" fill="white" opacity="0.5"/>
</svg>
